<svg width="340" height="140" viewBox="0 0 340 140" fill="none" xmlns="http://www.w3.org/2000/svg">
<rect width="340" height="140" fill="#263324"/>
<path fill-rule="evenodd" clip-rule="evenodd" d="M43.8624 63.835C46.3437 62.0323 50.3642 63.3364 52.8429 66.748C55.3217 70.1598 55.3193 74.3867 52.838 76.1895C50.3568 77.9919 46.3362 76.688 43.8576 73.2764C41.3788 69.8647 41.3812 65.6377 43.8624 63.835ZM60.5177 66.748C62.9965 63.3364 67.017 62.0323 69.4982 63.835C71.9794 65.6377 71.9818 69.8647 69.5031 73.2764C67.0243 76.6881 63.0029 77.9922 60.5216 76.1895C58.0407 74.3866 58.0391 70.1596 60.5177 66.748ZM56.6798 52.6582C59.7111 52.6582 62.169 56.0606 62.1691 60.2578C62.1691 64.4551 59.7112 67.8574 56.6798 67.8574C53.6486 67.8571 51.1915 64.4549 51.1915 60.2578C51.1916 56.0608 53.6487 52.6585 56.6798 52.6582Z" fill="#D0DBC8"/>
<path d="M91.8921 78.36C90.7161 78.36 89.6721 78.24 88.7601 78C87.8721 77.76 87.1281 77.412 86.5281 76.956C85.9281 76.5 85.4721 75.96 85.1601 75.336C84.8721 74.712 84.7281 74.028 84.7281 73.284C84.7281 72.804 84.8241 72.384 85.0161 72.024C85.2321 71.664 85.5321 71.388 85.9161 71.196C86.3001 70.98 86.7681 70.872 87.3201 70.872C87.3681 71.856 87.5601 72.792 87.8961 73.68C88.2321 74.544 88.7481 75.252 89.4441 75.804C90.1401 76.332 91.0521 76.596 92.1801 76.596C93.7881 76.596 95.0481 76.212 95.9601 75.444C96.8721 74.652 97.3281 73.524 97.3281 72.06C97.3281 71.172 97.1481 70.428 96.7881 69.828C96.4521 69.204 95.8761 68.628 95.0601 68.1C94.2681 67.572 93.1641 67.02 91.7481 66.444C90.6441 65.988 89.6721 65.496 88.8321 64.968C87.9921 64.44 87.2961 63.864 86.7441 63.24C86.2161 62.616 85.8081 61.908 85.5201 61.116C85.2561 60.324 85.1241 59.436 85.1241 58.452C85.1241 57.084 85.4601 55.92 86.1321 54.96C86.8281 53.976 87.7641 53.232 88.9401 52.728C90.1401 52.2 91.4961 51.936 93.0081 51.936C94.4481 51.936 95.6601 52.128 96.6441 52.512C97.6521 52.896 98.4201 53.4 98.9481 54.024C99.4761 54.624 99.7401 55.272 99.7401 55.968C99.7401 56.736 99.4761 57.324 98.9481 57.732C98.4441 58.116 97.7601 58.308 96.8961 58.308C96.8961 57.564 96.7641 56.844 96.5001 56.148C96.2601 55.452 95.8401 54.876 95.2401 54.42C94.6641 53.964 93.8721 53.736 92.8641 53.736C91.9521 53.736 91.1601 53.904 90.4881 54.24C89.8401 54.576 89.3361 55.056 88.9761 55.68C88.6401 56.28 88.4721 57 88.4721 57.84C88.4721 58.8 88.6401 59.616 88.9761 60.288C89.3361 60.936 89.9241 61.524 90.7401 62.052C91.5561 62.556 92.6601 63.096 94.0521 63.672C95.4681 64.248 96.6681 64.884 97.6521 65.58C98.6601 66.252 99.4281 67.032 99.9561 67.92C100.484 68.808 100.748 69.876 100.748 71.124C100.748 72.66 100.388 73.968 99.6681 75.048C98.9481 76.104 97.9161 76.92 96.5721 77.496C95.2521 78.072 93.6921 78.36 91.8921 78.36ZM109.962 78.36C108.906 78.36 107.946 78.156 107.082 77.748C106.242 77.316 105.582 76.68 105.102 75.84C104.622 74.976 104.382 73.896 104.382 72.6C104.382 70.68 105.054 69.264 106.398 68.352C107.766 67.44 109.83 66.936 112.59 66.84L115.578 66.732V64.572C115.578 63.708 115.506 62.952 115.362 62.304C115.218 61.632 114.906 61.104 114.426 60.72C113.946 60.336 113.214 60.144 112.23 60.144C111.318 60.144 110.622 60.312 110.142 60.648C109.662 60.984 109.338 61.452 109.17 62.052C109.026 62.628 108.954 63.3 108.954 64.068C107.946 64.068 107.178 63.9 106.65 63.564C106.146 63.204 105.894 62.616 105.894 61.8C105.894 60.96 106.182 60.288 106.758 59.784C107.358 59.28 108.15 58.92 109.134 58.704C110.118 58.464 111.198 58.344 112.374 58.344C114.582 58.344 116.226 58.812 117.306 59.748C118.41 60.684 118.962 62.292 118.962 64.572V73.896C118.962 74.568 119.034 75.096 119.178 75.48C119.322 75.84 119.562 76.104 119.898 76.272C120.234 76.416 120.666 76.488 121.194 76.488H121.302V78H116.442L115.866 74.904H115.578C115.074 75.576 114.582 76.176 114.102 76.704C113.622 77.208 113.058 77.616 112.41 77.928C111.786 78.216 110.97 78.36 109.962 78.36ZM110.79 76.128C111.774 76.128 112.614 75.924 113.31 75.516C114.03 75.108 114.582 74.532 114.966 73.788C115.374 73.02 115.578 72.132 115.578 71.124V68.208L113.274 68.316C111.906 68.364 110.826 68.568 110.034 68.928C109.266 69.288 108.714 69.792 108.378 70.44C108.042 71.064 107.874 71.844 107.874 72.78C107.874 73.524 107.982 74.148 108.198 74.652C108.414 75.132 108.738 75.504 109.17 75.768C109.602 76.008 110.142 76.128 110.79 76.128ZM124.055 78V76.488H124.163C124.715 76.488 125.207 76.428 125.639 76.308C126.095 76.188 126.455 75.948 126.719 75.588C126.983 75.204 127.115 74.64 127.115 73.896V62.664C127.115 61.944 126.971 61.416 126.683 61.08C126.419 60.72 126.059 60.492 125.603 60.396C125.171 60.276 124.691 60.216 124.163 60.216H124.055V58.704H129.599L130.283 62.268H130.463C130.775 61.548 131.111 60.888 131.471 60.288C131.831 59.688 132.311 59.22 132.911 58.884C133.511 58.524 134.339 58.344 135.395 58.344C136.715 58.344 137.687 58.572 138.311 59.028C138.959 59.484 139.283 60.132 139.283 60.972C139.283 61.716 139.019 62.328 138.491 62.808C137.987 63.288 137.135 63.528 135.935 63.528C135.935 62.856 135.875 62.316 135.755 61.908C135.635 61.5 135.431 61.2 135.143 61.008C134.879 60.816 134.507 60.72 134.027 60.72C133.355 60.72 132.791 60.984 132.335 61.512C131.879 62.04 131.519 62.712 131.255 63.528C130.991 64.344 130.799 65.196 130.679 66.084C130.559 66.948 130.499 67.728 130.499 68.424V74.076C130.499 74.772 130.631 75.3 130.895 75.66C131.183 75.996 131.543 76.224 131.975 76.344C132.431 76.44 132.923 76.488 133.451 76.488H134.459V78H124.055ZM146.489 78.36C145.433 78.36 144.473 78.156 143.609 77.748C142.769 77.316 142.109 76.68 141.629 75.84C141.149 74.976 140.909 73.896 140.909 72.6C140.909 70.68 141.581 69.264 142.925 68.352C144.293 67.44 146.357 66.936 149.117 66.84L152.105 66.732V64.572C152.105 63.708 152.033 62.952 151.889 62.304C151.745 61.632 151.433 61.104 150.953 60.72C150.473 60.336 149.741 60.144 148.757 60.144C147.845 60.144 147.149 60.312 146.669 60.648C146.189 60.984 145.865 61.452 145.697 62.052C145.553 62.628 145.481 63.3 145.481 64.068C144.473 64.068 143.705 63.9 143.177 63.564C142.673 63.204 142.421 62.616 142.421 61.8C142.421 60.96 142.709 60.288 143.285 59.784C143.885 59.28 144.677 58.92 145.661 58.704C146.645 58.464 147.725 58.344 148.901 58.344C151.109 58.344 152.753 58.812 153.833 59.748C154.937 60.684 155.489 62.292 155.489 64.572V73.896C155.489 74.568 155.561 75.096 155.705 75.48C155.849 75.84 156.089 76.104 156.425 76.272C156.761 76.416 157.193 76.488 157.721 76.488H157.829V78H152.969L152.393 74.904H152.105C151.601 75.576 151.109 76.176 150.629 76.704C150.149 77.208 149.585 77.616 148.937 77.928C148.313 78.216 147.497 78.36 146.489 78.36ZM147.317 76.128C148.301 76.128 149.141 75.924 149.837 75.516C150.557 75.108 151.109 74.532 151.493 73.788C151.901 73.02 152.105 72.132 152.105 71.124V68.208L149.801 68.316C148.433 68.364 147.353 68.568 146.561 68.928C145.793 69.288 145.241 69.792 144.905 70.44C144.569 71.064 144.401 71.844 144.401 72.78C144.401 73.524 144.509 74.148 144.725 74.652C144.941 75.132 145.265 75.504 145.697 75.768C146.129 76.008 146.669 76.128 147.317 76.128ZM160.043 78V76.488H160.331C160.883 76.488 161.375 76.428 161.807 76.308C162.263 76.188 162.623 75.948 162.887 75.588C163.151 75.204 163.283 74.64 163.283 73.896V54.6C163.283 53.88 163.139 53.352 162.851 53.016C162.587 52.656 162.227 52.428 161.771 52.332C161.339 52.212 160.859 52.152 160.331 52.152H160.043V50.64H166.667V58.56C166.667 58.992 166.655 59.448 166.631 59.928C166.607 60.384 166.583 60.78 166.559 61.116C166.535 61.452 166.523 61.62 166.523 61.62H166.703C167.063 60.9 167.495 60.3 167.999 59.82C168.527 59.316 169.115 58.944 169.763 58.704C170.435 58.464 171.179 58.344 171.995 58.344C174.059 58.344 175.631 58.908 176.711 60.036C177.815 61.14 178.367 62.928 178.367 65.4V73.896C178.367 74.64 178.487 75.204 178.727 75.588C178.967 75.948 179.291 76.188 179.699 76.308C180.131 76.428 180.611 76.488 181.139 76.488H181.247V78H174.983V65.58C174.983 64.02 174.683 62.808 174.083 61.944C173.507 61.08 172.487 60.648 171.023 60.648C170.039 60.648 169.223 60.888 168.575 61.368C167.927 61.848 167.447 62.532 167.135 63.42C166.823 64.284 166.667 65.304 166.667 66.48V74.076C166.667 74.772 166.799 75.3 167.063 75.66C167.351 75.996 167.711 76.224 168.143 76.344C168.599 76.44 169.091 76.488 169.619 76.488H169.727V78H160.043ZM191.202 86.64V84.948H191.526C192.558 84.948 193.434 84.744 194.154 84.336C194.874 83.952 195.426 83.268 195.81 82.284C196.194 81.324 196.386 80.004 196.386 78.324V56.256C196.386 55.536 196.242 55.008 195.954 54.672C195.69 54.312 195.33 54.084 194.874 53.988C194.442 53.868 193.962 53.808 193.434 53.808H192.966V52.296H203.442V53.808H202.974C202.446 53.808 201.954 53.868 201.498 53.988C201.042 54.108 200.682 54.348 200.418 54.708C200.154 55.068 200.022 55.632 200.022 56.4V78.288C200.022 79.896 199.806 81.24 199.374 82.32C198.966 83.4 198.39 84.252 197.646 84.876C196.902 85.5 196.026 85.944 195.018 86.208C194.034 86.496 192.966 86.64 191.814 86.64H191.202ZM211.845 78.36C210.789 78.36 209.829 78.156 208.965 77.748C208.125 77.316 207.465 76.68 206.985 75.84C206.505 74.976 206.265 73.896 206.265 72.6C206.265 70.68 206.937 69.264 208.281 68.352C209.649 67.44 211.713 66.936 214.473 66.84L217.461 66.732V64.572C217.461 63.708 217.389 62.952 217.245 62.304C217.101 61.632 216.789 61.104 216.309 60.72C215.829 60.336 215.097 60.144 214.113 60.144C213.201 60.144 212.505 60.312 212.025 60.648C211.545 60.984 211.221 61.452 211.053 62.052C210.909 62.628 210.837 63.3 210.837 64.068C209.829 64.068 209.061 63.9 208.533 63.564C208.029 63.204 207.777 62.616 207.777 61.8C207.777 60.96 208.065 60.288 208.641 59.784C209.241 59.28 210.033 58.92 211.017 58.704C212.001 58.464 213.081 58.344 214.257 58.344C216.465 58.344 218.109 58.812 219.189 59.748C220.293 60.684 220.845 62.292 220.845 64.572V73.896C220.845 74.568 220.917 75.096 221.061 75.48C221.205 75.84 221.445 76.104 221.781 76.272C222.117 76.416 222.549 76.488 223.077 76.488H223.185V78H218.325L217.749 74.904H217.461C216.957 75.576 216.465 76.176 215.985 76.704C215.505 77.208 214.941 77.616 214.293 77.928C213.669 78.216 212.853 78.36 211.845 78.36ZM212.673 76.128C213.657 76.128 214.497 75.924 215.193 75.516C215.913 75.108 216.465 74.532 216.849 73.788C217.257 73.02 217.461 72.132 217.461 71.124V68.208L215.157 68.316C213.789 68.364 212.709 68.568 211.917 68.928C211.149 69.288 210.597 69.792 210.261 70.44C209.925 71.064 209.757 71.844 209.757 72.78C209.757 73.524 209.865 74.148 210.081 74.652C210.297 75.132 210.621 75.504 211.053 75.768C211.485 76.008 212.025 76.128 212.673 76.128ZM225.758 78V76.488H226.226C226.778 76.488 227.258 76.428 227.666 76.308C228.074 76.188 228.398 75.948 228.638 75.588C228.878 75.204 228.998 74.64 228.998 73.896V62.664C228.998 61.944 228.878 61.416 228.638 61.08C228.398 60.72 228.062 60.492 227.63 60.396C227.222 60.276 226.754 60.216 226.226 60.216H226.118V58.704H231.77L232.238 61.62H232.418C232.898 60.708 233.414 60.024 233.966 59.568C234.518 59.088 235.118 58.764 235.766 58.596C236.414 58.428 237.11 58.344 237.854 58.344C238.622 58.344 239.342 58.452 240.014 58.668C240.71 58.884 241.322 59.232 241.85 59.712C242.378 60.168 242.786 60.804 243.074 61.62H243.362C243.842 60.708 244.37 60.024 244.946 59.568C245.546 59.088 246.182 58.764 246.854 58.596C247.55 58.428 248.27 58.344 249.014 58.344C250.862 58.344 252.302 58.908 253.334 60.036C254.366 61.14 254.882 62.928 254.882 65.4V73.896C254.882 74.64 255.002 75.204 255.242 75.588C255.482 75.948 255.806 76.188 256.214 76.308C256.646 76.428 257.126 76.488 257.654 76.488H257.762V78H251.498V65.58C251.498 64.02 251.21 62.808 250.634 61.944C250.082 61.08 249.11 60.648 247.718 60.648C246.734 60.648 245.942 60.9 245.342 61.404C244.766 61.884 244.346 62.532 244.082 63.348C243.842 64.164 243.722 65.052 243.722 66.012V73.896C243.722 74.64 243.842 75.204 244.082 75.588C244.322 75.948 244.646 76.188 245.054 76.308C245.486 76.428 245.966 76.488 246.494 76.488H246.602V78H240.338V65.58C240.338 64.02 240.05 62.808 239.474 61.944C238.922 61.08 237.95 60.648 236.558 60.648C235.526 60.648 234.698 60.924 234.074 61.476C233.474 62.004 233.042 62.712 232.778 63.6C232.514 64.488 232.382 65.448 232.382 66.48V74.076C232.382 74.772 232.514 75.3 232.778 75.66C233.066 75.996 233.426 76.224 233.858 76.344C234.314 76.44 234.806 76.488 235.334 76.488H235.442V78H225.758ZM269.113 78.36C266.497 78.36 264.445 77.496 262.957 75.768C261.493 74.04 260.761 71.616 260.761 68.496C260.761 65.136 261.457 62.604 262.849 60.9C264.241 59.196 266.209 58.344 268.753 58.344C271.081 58.344 272.905 59.064 274.225 60.504C275.569 61.944 276.241 64.092 276.241 66.948V68.604H264.253C264.301 70.356 264.529 71.784 264.937 72.888C265.345 73.992 265.933 74.808 266.701 75.336C267.493 75.84 268.465 76.092 269.617 76.092C270.457 76.092 271.201 75.972 271.849 75.732C272.521 75.492 273.097 75.18 273.577 74.796C274.081 74.412 274.477 74.004 274.765 73.572C274.933 73.644 275.089 73.788 275.233 74.004C275.377 74.22 275.449 74.484 275.449 74.796C275.449 75.276 275.221 75.792 274.765 76.344C274.309 76.896 273.613 77.376 272.677 77.784C271.741 78.168 270.553 78.36 269.113 78.36ZM272.605 66.66C272.605 65.388 272.473 64.272 272.209 63.312C271.969 62.352 271.561 61.608 270.985 61.08C270.409 60.552 269.641 60.288 268.681 60.288C267.793 60.288 267.037 60.54 266.413 61.044C265.813 61.524 265.333 62.232 264.973 63.168C264.637 64.104 264.421 65.268 264.325 66.66H272.605ZM285.607 78.36C284.407 78.36 283.363 78.216 282.475 77.928C281.587 77.64 280.891 77.22 280.387 76.668C279.907 76.092 279.667 75.384 279.667 74.544C279.667 73.896 279.799 73.392 280.063 73.032C280.327 72.672 280.627 72.42 280.963 72.276C281.323 72.132 281.647 72.06 281.935 72.06C281.935 72.9 282.055 73.668 282.295 74.364C282.535 75.06 282.943 75.612 283.519 76.02C284.095 76.428 284.863 76.632 285.823 76.632C287.095 76.632 288.067 76.332 288.739 75.732C289.435 75.108 289.783 74.316 289.783 73.356C289.783 72.756 289.651 72.264 289.387 71.88C289.147 71.496 288.703 71.124 288.055 70.764C287.431 70.38 286.531 69.936 285.355 69.432C284.131 68.88 283.111 68.352 282.295 67.848C281.503 67.32 280.903 66.72 280.495 66.048C280.111 65.352 279.919 64.488 279.919 63.456C279.919 61.824 280.531 60.576 281.755 59.712C283.003 58.824 284.647 58.38 286.687 58.38C287.839 58.38 288.799 58.536 289.567 58.848C290.359 59.136 290.947 59.532 291.331 60.036C291.739 60.54 291.943 61.092 291.943 61.692C291.943 62.34 291.715 62.868 291.259 63.276C290.827 63.66 290.191 63.852 289.351 63.852C289.351 62.652 289.099 61.716 288.595 61.044C288.091 60.372 287.311 60.036 286.255 60.036C285.439 60.036 284.779 60.156 284.275 60.396C283.771 60.636 283.399 60.972 283.159 61.404C282.943 61.836 282.835 62.34 282.835 62.916C282.835 63.516 282.979 64.02 283.267 64.428C283.579 64.836 284.059 65.22 284.707 65.58C285.379 65.916 286.243 66.3 287.299 66.732C288.571 67.26 289.603 67.788 290.395 68.316C291.187 68.844 291.763 69.456 292.123 70.152C292.507 70.848 292.699 71.7 292.699 72.708C292.699 74.58 292.051 75.996 290.755 76.956C289.459 77.892 287.743 78.36 285.607 78.36Z" fill="white"/>
<path opacity="0.8" d="M84.8001 98V97.496H85.0761C85.2521 97.496 85.4121 97.48 85.5561 97.448C85.7081 97.408 85.8281 97.332 85.9161 97.22C86.0121 97.1 86.0601 96.924 86.0601 96.692V90.032H84.9081C84.6761 90.032 84.4921 90.08 84.3561 90.176C84.2201 90.264 84.1201 90.384 84.0561 90.536C83.9921 90.68 83.9481 90.84 83.9241 91.016L83.8641 91.532H83.2401L83.3001 89.432H90.0561L90.1161 91.532H89.4921L89.4321 91.016C89.4161 90.84 89.3721 90.68 89.3001 90.536C89.2361 90.384 89.1361 90.264 89.0001 90.176C88.8641 90.08 88.6761 90.032 88.4361 90.032H87.2721V96.632C87.2721 96.88 87.3161 97.068 87.4041 97.196C87.4921 97.316 87.6121 97.396 87.7641 97.436C87.9161 97.476 88.0801 97.496 88.2561 97.496H88.5321V98H84.8001ZM101.375 98V97.496H101.471C101.655 97.496 101.819 97.476 101.963 97.436C102.115 97.396 102.235 97.316 102.323 97.196C102.411 97.068 102.455 96.88 102.455 96.632V90.2C102.455 89.96 102.407 89.784 102.311 89.672C102.223 89.552 102.103 89.476 101.951 89.444C101.807 89.404 101.647 89.384 101.471 89.384H101.375V88.88H103.583V91.52C103.583 91.664 103.579 91.816 103.571 91.976C103.563 92.128 103.555 92.26 103.547 92.372C103.539 92.484 103.535 92.54 103.535 92.54H103.595C103.715 92.3 103.859 92.1 104.027 91.94C104.203 91.772 104.399 91.648 104.615 91.568C104.839 91.488 105.087 91.448 105.359 91.448C106.047 91.448 106.571 91.636 106.931 92.012C107.299 92.38 107.483 92.976 107.483 93.8V96.632C107.483 96.88 107.523 97.068 107.603 97.196C107.683 97.316 107.791 97.396 107.927 97.436C108.071 97.476 108.231 97.496 108.407 97.496H108.443V98H106.355V93.86C106.355 93.34 106.255 92.936 106.055 92.648C105.863 92.36 105.523 92.216 105.035 92.216C104.707 92.216 104.435 92.296 104.219 92.456C104.003 92.616 103.843 92.844 103.739 93.14C103.635 93.428 103.583 93.768 103.583 94.16V96.692C103.583 96.924 103.627 97.1 103.715 97.22C103.811 97.332 103.931 97.408 104.075 97.448C104.227 97.48 104.391 97.496 104.567 97.496H104.603V98H101.375ZM123.021 98.12C122.149 98.12 121.465 97.832 120.969 97.256C120.481 96.68 120.237 95.872 120.237 94.832C120.237 93.712 120.469 92.868 120.933 92.3C121.397 91.732 122.053 91.448 122.901 91.448C123.677 91.448 124.285 91.688 124.725 92.168C125.173 92.648 125.397 93.364 125.397 94.316V94.868H121.401C121.417 95.452 121.493 95.928 121.629 96.296C121.765 96.664 121.961 96.936 122.217 97.112C122.481 97.28 122.805 97.364 123.189 97.364C123.469 97.364 123.717 97.324 123.933 97.244C124.157 97.164 124.349 97.06 124.509 96.932C124.677 96.804 124.809 96.668 124.905 96.524C124.961 96.548 125.013 96.596 125.061 96.668C125.109 96.74 125.133 96.828 125.133 96.932C125.133 97.092 125.057 97.264 124.905 97.448C124.753 97.632 124.521 97.792 124.209 97.928C123.897 98.056 123.501 98.12 123.021 98.12ZM124.185 94.22C124.185 93.796 124.141 93.424 124.053 93.104C123.973 92.784 123.837 92.536 123.645 92.36C123.453 92.184 123.197 92.096 122.877 92.096C122.581 92.096 122.329 92.18 122.121 92.348C121.921 92.508 121.761 92.744 121.641 93.056C121.529 93.368 121.457 93.756 121.425 94.22H124.185ZM137.195 98V97.496H137.231C137.415 97.496 137.579 97.476 137.723 97.436C137.875 97.396 137.995 97.316 138.083 97.196C138.171 97.068 138.215 96.88 138.215 96.632V92.888C138.215 92.648 138.167 92.472 138.071 92.36C137.983 92.24 137.863 92.164 137.711 92.132C137.567 92.092 137.407 92.072 137.231 92.072H137.195V91.568H139.043L139.271 92.756H139.331C139.435 92.516 139.547 92.296 139.667 92.096C139.787 91.896 139.947 91.74 140.147 91.628C140.347 91.508 140.623 91.448 140.975 91.448C141.415 91.448 141.739 91.524 141.947 91.676C142.163 91.828 142.271 92.044 142.271 92.324C142.271 92.572 142.183 92.776 142.007 92.936C141.839 93.096 141.555 93.176 141.155 93.176C141.155 92.952 141.135 92.772 141.095 92.636C141.055 92.5 140.987 92.4 140.891 92.336C140.803 92.272 140.679 92.24 140.519 92.24C140.295 92.24 140.107 92.328 139.955 92.504C139.803 92.68 139.683 92.904 139.595 93.176C139.507 93.448 139.443 93.732 139.403 94.028C139.363 94.316 139.343 94.576 139.343 94.808V96.692C139.343 96.924 139.387 97.1 139.475 97.22C139.571 97.332 139.691 97.408 139.835 97.448C139.987 97.48 140.151 97.496 140.327 97.496H140.663V98H137.195ZM155.473 98.12C155.121 98.12 154.801 98.052 154.513 97.916C154.233 97.772 154.013 97.56 153.853 97.28C153.693 96.992 153.613 96.632 153.613 96.2C153.613 95.56 153.837 95.088 154.285 94.784C154.741 94.48 155.429 94.312 156.349 94.28L157.345 94.244V93.524C157.345 93.236 157.321 92.984 157.273 92.768C157.225 92.544 157.121 92.368 156.961 92.24C156.801 92.112 156.557 92.048 156.229 92.048C155.925 92.048 155.693 92.104 155.533 92.216C155.373 92.328 155.265 92.484 155.209 92.684C155.161 92.876 155.137 93.1 155.137 93.356C154.801 93.356 154.545 93.3 154.369 93.188C154.201 93.068 154.117 92.872 154.117 92.6C154.117 92.32 154.213 92.096 154.405 91.928C154.605 91.76 154.869 91.64 155.197 91.568C155.525 91.488 155.885 91.448 156.277 91.448C157.013 91.448 157.561 91.604 157.921 91.916C158.289 92.228 158.473 92.764 158.473 93.524V96.632C158.473 96.856 158.497 97.032 158.545 97.16C158.593 97.28 158.673 97.368 158.785 97.424C158.897 97.472 159.041 97.496 159.217 97.496H159.253V98H157.633L157.441 96.968H157.345C157.177 97.192 157.013 97.392 156.853 97.568C156.693 97.736 156.505 97.872 156.289 97.976C156.081 98.072 155.809 98.12 155.473 98.12ZM155.749 97.376C156.077 97.376 156.357 97.308 156.589 97.172C156.829 97.036 157.013 96.844 157.141 96.596C157.277 96.34 157.345 96.044 157.345 95.708V94.736L156.577 94.772C156.121 94.788 155.761 94.856 155.497 94.976C155.241 95.096 155.057 95.264 154.945 95.48C154.833 95.688 154.777 95.948 154.777 96.26C154.777 96.508 154.813 96.716 154.885 96.884C154.957 97.044 155.065 97.168 155.209 97.256C155.353 97.336 155.533 97.376 155.749 97.376ZM170.79 100.88V100.376H170.886C171.07 100.376 171.234 100.356 171.378 100.316C171.53 100.276 171.65 100.192 171.738 100.064C171.826 99.944 171.87 99.76 171.87 99.512V92.888C171.87 92.648 171.822 92.472 171.726 92.36C171.638 92.24 171.518 92.164 171.366 92.132C171.222 92.092 171.062 92.072 170.886 92.072H170.73V91.568H172.83L172.95 92.648H172.998C173.182 92.28 173.418 91.988 173.706 91.772C173.994 91.556 174.37 91.448 174.834 91.448C175.626 91.448 176.23 91.716 176.646 92.252C177.07 92.78 177.282 93.62 177.282 94.772C177.282 95.932 177.07 96.78 176.646 97.316C176.23 97.852 175.626 98.12 174.834 98.12C174.37 98.12 173.99 98.024 173.694 97.832C173.406 97.632 173.174 97.376 172.998 97.064H172.95C172.966 97.216 172.974 97.38 172.974 97.556C172.982 97.724 172.986 97.884 172.986 98.036C172.994 98.188 172.998 98.316 172.998 98.42V99.572C172.998 99.804 173.042 99.976 173.13 100.088C173.226 100.208 173.346 100.284 173.49 100.316C173.642 100.356 173.806 100.376 173.982 100.376H174.018V100.88H170.79ZM174.642 97.352C174.994 97.352 175.278 97.252 175.494 97.052C175.71 96.852 175.866 96.56 175.962 96.176C176.066 95.792 176.118 95.32 176.118 94.76C176.118 94.192 176.066 93.72 175.962 93.344C175.866 92.968 175.71 92.688 175.494 92.504C175.278 92.312 174.99 92.216 174.63 92.216C174.214 92.216 173.886 92.308 173.646 92.492C173.414 92.676 173.246 92.96 173.142 93.344C173.046 93.72 172.998 94.196 172.998 94.772C172.998 95.324 173.046 95.792 173.142 96.176C173.246 96.56 173.418 96.852 173.658 97.052C173.898 97.252 174.226 97.352 174.642 97.352ZM188.967 100.316C189.375 100.316 189.727 100.256 190.023 100.136C190.319 100.016 190.571 99.848 190.779 99.632C190.987 99.424 191.163 99.176 191.307 98.888C191.451 98.6 191.571 98.288 191.667 97.952L189.447 92.708C189.375 92.54 189.303 92.412 189.231 92.324C189.159 92.228 189.075 92.164 188.979 92.132C188.883 92.092 188.755 92.072 188.595 92.072H188.559V91.568H191.439V92.072H191.403C191.163 92.072 190.983 92.12 190.863 92.216C190.743 92.304 190.683 92.448 190.683 92.648C190.683 92.712 190.691 92.78 190.707 92.852C190.723 92.924 190.747 93.004 190.779 93.092L191.655 95.228C191.711 95.364 191.767 95.512 191.823 95.672C191.887 95.832 191.947 95.992 192.003 96.152C192.059 96.312 192.107 96.464 192.147 96.608C192.187 96.752 192.215 96.872 192.231 96.968C192.287 96.736 192.359 96.496 192.447 96.248C192.543 96 192.631 95.756 192.711 95.516L193.515 93.176C193.555 93.08 193.583 92.988 193.599 92.9C193.615 92.804 193.623 92.724 193.623 92.66C193.623 92.452 193.555 92.304 193.419 92.216C193.291 92.12 193.095 92.072 192.831 92.072H192.795V91.568H195.291V92.072H195.255C195.103 92.072 194.975 92.096 194.871 92.144C194.767 92.192 194.675 92.284 194.595 92.42C194.523 92.556 194.439 92.752 194.343 93.008L192.519 98.048C192.311 98.632 192.111 99.108 191.919 99.476C191.727 99.844 191.511 100.128 191.271 100.328C191.039 100.536 190.747 100.68 190.395 100.76C190.043 100.84 189.603 100.88 189.075 100.88H188.967V100.316Z" fill="#D6E2CF"/>
</svg>
