<svg width="512" height="512" viewBox="0 0 512 512" fill="none" xmlns="http://www.w3.org/2000/svg">
<g clip-path="url(#clip0_2_16)">
<path d="M299.957 253.69C327.17 216.234 371.315 201.914 398.556 221.706C425.796 241.498 425.818 287.906 398.604 325.361C371.391 362.817 327.248 377.137 300.007 357.346C272.766 337.554 272.744 291.146 299.957 253.69ZM113.445 221.703C140.686 201.912 184.83 216.232 212.043 253.688C239.256 291.144 239.234 337.552 211.993 357.344C184.752 377.135 140.609 362.815 113.395 325.359C86.1821 287.903 86.2045 241.495 113.445 221.703ZM255.5 116C288.361 116 315 150.25 315 192.5C315 234.75 288.361 269 255.5 269C222.639 269 196 234.75 196 192.5C196 150.25 222.639 116 255.5 116Z" fill="#7C8F73"/>
</g>
<defs>
<clipPath id="clip0_2_16">
<rect width="512" height="512" fill="white"/>
</clipPath>
</defs>
</svg>
