<svg width="340" height="140" viewBox="0 0 340 140" fill="none" xmlns="http://www.w3.org/2000/svg">
<path d="M154.347 27.085C157.473 24.8132 162.54 26.4565 165.664 30.7559C168.788 35.0553 168.785 40.3825 165.658 42.6543C162.531 44.9257 157.464 43.2817 154.341 38.9824C151.217 34.6831 151.22 29.3568 154.347 27.085ZM175.336 30.7559C178.46 26.4566 183.526 24.8132 186.653 27.085C189.78 29.3568 189.782 34.6832 186.659 38.9824C183.535 43.2818 178.468 44.9261 175.341 42.6543C172.214 40.3824 172.212 35.0552 175.336 30.7559ZM170.5 13C174.32 13.0001 177.417 17.2879 177.417 22.5771C177.417 27.8665 174.32 32.1542 170.5 32.1543C166.68 32.1543 163.583 27.8665 163.583 22.5771C163.583 17.2878 166.68 13 170.5 13Z" fill="#7C8F73"/>
<path d="M71.892 95.0359C70.716 95.0359 69.672 94.9159 68.76 94.6759C67.872 94.4359 67.128 94.0879 66.528 93.6319C65.928 93.1759 65.472 92.6359 65.16 92.0119C64.872 91.3879 64.728 90.7039 64.728 89.9599C64.728 89.4799 64.824 89.0599 65.016 88.6999C65.232 88.3399 65.532 88.0639 65.916 87.8719C66.3 87.6559 66.768 87.5479 67.32 87.5479C67.368 88.5319 67.56 89.4679 67.896 90.3559C68.232 91.2199 68.748 91.9279 69.444 92.4799C70.14 93.0079 71.052 93.2719 72.18 93.2719C73.788 93.2719 75.048 92.8879 75.96 92.1199C76.872 91.3279 77.328 90.1999 77.328 88.7359C77.328 87.8479 77.148 87.1039 76.788 86.5039C76.452 85.8799 75.876 85.3039 75.06 84.7759C74.268 84.2479 73.164 83.6959 71.748 83.1199C70.644 82.6639 69.672 82.1719 68.832 81.6439C67.992 81.1159 67.296 80.5399 66.744 79.9159C66.216 79.2919 65.808 78.5839 65.52 77.7919C65.256 76.9999 65.124 76.1119 65.124 75.1279C65.124 73.7599 65.46 72.5959 66.132 71.6359C66.828 70.6519 67.764 69.9079 68.94 69.4039C70.14 68.8759 71.496 68.6119 73.008 68.6119C74.448 68.6119 75.66 68.8039 76.644 69.1879C77.652 69.5719 78.42 70.0759 78.948 70.6999C79.476 71.2999 79.74 71.9479 79.74 72.6439C79.74 73.4119 79.476 73.9999 78.948 74.4079C78.444 74.7919 77.76 74.9839 76.896 74.9839C76.896 74.2399 76.764 73.5199 76.5 72.8239C76.26 72.1279 75.84 71.5519 75.24 71.0959C74.664 70.6399 73.872 70.4119 72.864 70.4119C71.952 70.4119 71.16 70.5799 70.488 70.9159C69.84 71.2519 69.336 71.7319 68.976 72.3559C68.64 72.9559 68.472 73.6759 68.472 74.5159C68.472 75.4759 68.64 76.2919 68.976 76.9639C69.336 77.6119 69.924 78.1999 70.74 78.7279C71.556 79.2319 72.66 79.7719 74.052 80.3479C75.468 80.9239 76.668 81.5599 77.652 82.2559C78.66 82.9279 79.428 83.7079 79.956 84.5959C80.484 85.4839 80.748 86.5519 80.748 87.7999C80.748 89.3359 80.388 90.6439 79.668 91.7239C78.948 92.7799 77.916 93.5959 76.572 94.1719C75.252 94.7479 73.692 95.0359 71.892 95.0359ZM89.962 95.0359C88.906 95.0359 87.946 94.8319 87.082 94.4239C86.242 93.9919 85.582 93.3559 85.102 92.5159C84.622 91.6519 84.382 90.5719 84.382 89.2759C84.382 87.3559 85.054 85.9399 86.398 85.0279C87.766 84.1159 89.83 83.6119 92.59 83.5159L95.578 83.4079V81.2479C95.578 80.3839 95.506 79.6279 95.362 78.9799C95.218 78.3079 94.906 77.7799 94.426 77.3959C93.946 77.0119 93.214 76.8199 92.23 76.8199C91.318 76.8199 90.622 76.9879 90.142 77.3239C89.662 77.6599 89.338 78.1279 89.17 78.7279C89.026 79.3039 88.954 79.9759 88.954 80.7439C87.946 80.7439 87.178 80.5759 86.65 80.2399C86.146 79.8799 85.894 79.2919 85.894 78.4759C85.894 77.6359 86.182 76.9639 86.758 76.4599C87.358 75.9559 88.15 75.5959 89.134 75.3799C90.118 75.1399 91.198 75.0199 92.374 75.0199C94.582 75.0199 96.226 75.4879 97.306 76.4239C98.41 77.3599 98.962 78.9679 98.962 81.2479V90.5719C98.962 91.2439 99.034 91.7719 99.178 92.1559C99.322 92.5159 99.562 92.7799 99.898 92.9479C100.234 93.0919 100.666 93.1639 101.194 93.1639H101.302V94.6759H96.442L95.866 91.5799H95.578C95.074 92.2519 94.582 92.8519 94.102 93.3799C93.622 93.8839 93.058 94.2919 92.41 94.6039C91.786 94.8919 90.97 95.0359 89.962 95.0359ZM90.79 92.8039C91.774 92.8039 92.614 92.5999 93.31 92.1919C94.03 91.7839 94.582 91.2079 94.966 90.4639C95.374 89.6959 95.578 88.8079 95.578 87.7999V84.8839L93.274 84.9919C91.906 85.0399 90.826 85.2439 90.034 85.6039C89.266 85.9639 88.714 86.4679 88.378 87.1159C88.042 87.7399 87.874 88.5199 87.874 89.4559C87.874 90.1999 87.982 90.8239 88.198 91.3279C88.414 91.8079 88.738 92.1799 89.17 92.4439C89.602 92.6839 90.142 92.8039 90.79 92.8039ZM104.055 94.6759V93.1639H104.163C104.715 93.1639 105.207 93.1039 105.639 92.9839C106.095 92.8639 106.455 92.6239 106.719 92.2639C106.983 91.8799 107.115 91.3159 107.115 90.5719V79.3399C107.115 78.6199 106.971 78.0919 106.683 77.7559C106.419 77.3959 106.059 77.1679 105.603 77.0719C105.171 76.9519 104.691 76.8919 104.163 76.8919H104.055V75.3799H109.599L110.283 78.9439H110.463C110.775 78.2239 111.111 77.5639 111.471 76.9639C111.831 76.3639 112.311 75.8959 112.911 75.5599C113.511 75.1999 114.339 75.0199 115.395 75.0199C116.715 75.0199 117.687 75.2479 118.311 75.7039C118.959 76.1599 119.283 76.8079 119.283 77.6479C119.283 78.3919 119.019 79.0039 118.491 79.4839C117.987 79.9639 117.135 80.2039 115.935 80.2039C115.935 79.5319 115.875 78.9919 115.755 78.5839C115.635 78.1759 115.431 77.8759 115.143 77.6839C114.879 77.4919 114.507 77.3959 114.027 77.3959C113.355 77.3959 112.791 77.6599 112.335 78.1879C111.879 78.7159 111.519 79.3879 111.255 80.2039C110.991 81.0199 110.799 81.8719 110.679 82.7599C110.559 83.6239 110.499 84.4039 110.499 85.0999V90.7519C110.499 91.4479 110.631 91.9759 110.895 92.3359C111.183 92.6719 111.543 92.8999 111.975 93.0199C112.431 93.1159 112.923 93.1639 113.451 93.1639H114.459V94.6759H104.055ZM126.489 95.0359C125.433 95.0359 124.473 94.8319 123.609 94.4239C122.769 93.9919 122.109 93.3559 121.629 92.5159C121.149 91.6519 120.909 90.5719 120.909 89.2759C120.909 87.3559 121.581 85.9399 122.925 85.0279C124.293 84.1159 126.357 83.6119 129.117 83.5159L132.105 83.4079V81.2479C132.105 80.3839 132.033 79.6279 131.889 78.9799C131.745 78.3079 131.433 77.7799 130.953 77.3959C130.473 77.0119 129.741 76.8199 128.757 76.8199C127.845 76.8199 127.149 76.9879 126.669 77.3239C126.189 77.6599 125.865 78.1279 125.697 78.7279C125.553 79.3039 125.481 79.9759 125.481 80.7439C124.473 80.7439 123.705 80.5759 123.177 80.2399C122.673 79.8799 122.421 79.2919 122.421 78.4759C122.421 77.6359 122.709 76.9639 123.285 76.4599C123.885 75.9559 124.677 75.5959 125.661 75.3799C126.645 75.1399 127.725 75.0199 128.901 75.0199C131.109 75.0199 132.753 75.4879 133.833 76.4239C134.937 77.3599 135.489 78.9679 135.489 81.2479V90.5719C135.489 91.2439 135.561 91.7719 135.705 92.1559C135.849 92.5159 136.089 92.7799 136.425 92.9479C136.761 93.0919 137.193 93.1639 137.721 93.1639H137.829V94.6759H132.969L132.393 91.5799H132.105C131.601 92.2519 131.109 92.8519 130.629 93.3799C130.149 93.8839 129.585 94.2919 128.937 94.6039C128.313 94.8919 127.497 95.0359 126.489 95.0359ZM127.317 92.8039C128.301 92.8039 129.141 92.5999 129.837 92.1919C130.557 91.7839 131.109 91.2079 131.493 90.4639C131.901 89.6959 132.105 88.8079 132.105 87.7999V84.8839L129.801 84.9919C128.433 85.0399 127.353 85.2439 126.561 85.6039C125.793 85.9639 125.241 86.4679 124.905 87.1159C124.569 87.7399 124.401 88.5199 124.401 89.4559C124.401 90.1999 124.509 90.8239 124.725 91.3279C124.941 91.8079 125.265 92.1799 125.697 92.4439C126.129 92.6839 126.669 92.8039 127.317 92.8039ZM140.043 94.6759V93.1639H140.331C140.883 93.1639 141.375 93.1039 141.807 92.9839C142.263 92.8639 142.623 92.6239 142.887 92.2639C143.151 91.8799 143.283 91.3159 143.283 90.5719V71.2759C143.283 70.5559 143.139 70.0279 142.851 69.6919C142.587 69.3319 142.227 69.1039 141.771 69.0079C141.339 68.8879 140.859 68.8279 140.331 68.8279H140.043V67.3159H146.667V75.2359C146.667 75.6679 146.655 76.1239 146.631 76.6039C146.607 77.0599 146.583 77.4559 146.559 77.7919C146.535 78.1279 146.523 78.2959 146.523 78.2959H146.703C147.063 77.5759 147.495 76.9759 147.999 76.4959C148.527 75.9919 149.115 75.6199 149.763 75.3799C150.435 75.1399 151.179 75.0199 151.995 75.0199C154.059 75.0199 155.631 75.5839 156.711 76.7119C157.815 77.8159 158.367 79.6039 158.367 82.0759V90.5719C158.367 91.3159 158.487 91.8799 158.727 92.2639C158.967 92.6239 159.291 92.8639 159.699 92.9839C160.131 93.1039 160.611 93.1639 161.139 93.1639H161.247V94.6759H154.983V82.2559C154.983 80.6959 154.683 79.4839 154.083 78.6199C153.507 77.7559 152.487 77.3239 151.023 77.3239C150.039 77.3239 149.223 77.5639 148.575 78.0439C147.927 78.5239 147.447 79.2079 147.135 80.0959C146.823 80.9599 146.667 81.9799 146.667 83.1559V90.7519C146.667 91.4479 146.799 91.9759 147.063 92.3359C147.351 92.6719 147.711 92.8999 148.143 93.0199C148.599 93.1159 149.091 93.1639 149.619 93.1639H149.727V94.6759H140.043ZM171.202 103.316V101.624H171.526C172.558 101.624 173.434 101.42 174.154 101.012C174.874 100.628 175.426 99.9439 175.81 98.9599C176.194 97.9999 176.386 96.6799 176.386 94.9999V72.9319C176.386 72.2119 176.242 71.6839 175.954 71.3479C175.69 70.9879 175.33 70.7599 174.874 70.6639C174.442 70.5439 173.962 70.4839 173.434 70.4839H172.966V68.9719H183.442V70.4839H182.974C182.446 70.4839 181.954 70.5439 181.498 70.6639C181.042 70.7839 180.682 71.0239 180.418 71.3839C180.154 71.7439 180.022 72.3079 180.022 73.0759V94.9639C180.022 96.5719 179.806 97.9159 179.374 98.9959C178.966 100.076 178.39 100.928 177.646 101.552C176.902 102.176 176.026 102.62 175.018 102.884C174.034 103.172 172.966 103.316 171.814 103.316H171.202ZM191.845 95.0359C190.789 95.0359 189.829 94.8319 188.965 94.4239C188.125 93.9919 187.465 93.3559 186.985 92.5159C186.505 91.6519 186.265 90.5719 186.265 89.2759C186.265 87.3559 186.937 85.9399 188.281 85.0279C189.649 84.1159 191.713 83.6119 194.473 83.5159L197.461 83.4079V81.2479C197.461 80.3839 197.389 79.6279 197.245 78.9799C197.101 78.3079 196.789 77.7799 196.309 77.3959C195.829 77.0119 195.097 76.8199 194.113 76.8199C193.201 76.8199 192.505 76.9879 192.025 77.3239C191.545 77.6599 191.221 78.1279 191.053 78.7279C190.909 79.3039 190.837 79.9759 190.837 80.7439C189.829 80.7439 189.061 80.5759 188.533 80.2399C188.029 79.8799 187.777 79.2919 187.777 78.4759C187.777 77.6359 188.065 76.9639 188.641 76.4599C189.241 75.9559 190.033 75.5959 191.017 75.3799C192.001 75.1399 193.081 75.0199 194.257 75.0199C196.465 75.0199 198.109 75.4879 199.189 76.4239C200.293 77.3599 200.845 78.9679 200.845 81.2479V90.5719C200.845 91.2439 200.917 91.7719 201.061 92.1559C201.205 92.5159 201.445 92.7799 201.781 92.9479C202.117 93.0919 202.549 93.1639 203.077 93.1639H203.185V94.6759H198.325L197.749 91.5799H197.461C196.957 92.2519 196.465 92.8519 195.985 93.3799C195.505 93.8839 194.941 94.2919 194.293 94.6039C193.669 94.8919 192.853 95.0359 191.845 95.0359ZM192.673 92.8039C193.657 92.8039 194.497 92.5999 195.193 92.1919C195.913 91.7839 196.465 91.2079 196.849 90.4639C197.257 89.6959 197.461 88.8079 197.461 87.7999V84.8839L195.157 84.9919C193.789 85.0399 192.709 85.2439 191.917 85.6039C191.149 85.9639 190.597 86.4679 190.261 87.1159C189.925 87.7399 189.757 88.5199 189.757 89.4559C189.757 90.1999 189.865 90.8239 190.081 91.3279C190.297 91.8079 190.621 92.1799 191.053 92.4439C191.485 92.6839 192.025 92.8039 192.673 92.8039ZM205.758 94.6759V93.1639H206.226C206.778 93.1639 207.258 93.1039 207.666 92.9839C208.074 92.8639 208.398 92.6239 208.638 92.2639C208.878 91.8799 208.998 91.3159 208.998 90.5719V79.3399C208.998 78.6199 208.878 78.0919 208.638 77.7559C208.398 77.3959 208.062 77.1679 207.63 77.0719C207.222 76.9519 206.754 76.8919 206.226 76.8919H206.118V75.3799H211.77L212.238 78.2959H212.418C212.898 77.3839 213.414 76.6999 213.966 76.2439C214.518 75.7639 215.118 75.4399 215.766 75.2719C216.414 75.1039 217.11 75.0199 217.854 75.0199C218.622 75.0199 219.342 75.1279 220.014 75.3439C220.71 75.5599 221.322 75.9079 221.85 76.3879C222.378 76.8439 222.786 77.4799 223.074 78.2959H223.362C223.842 77.3839 224.37 76.6999 224.946 76.2439C225.546 75.7639 226.182 75.4399 226.854 75.2719C227.55 75.1039 228.27 75.0199 229.014 75.0199C230.862 75.0199 232.302 75.5839 233.334 76.7119C234.366 77.8159 234.882 79.6039 234.882 82.0759V90.5719C234.882 91.3159 235.002 91.8799 235.242 92.2639C235.482 92.6239 235.806 92.8639 236.214 92.9839C236.646 93.1039 237.126 93.1639 237.654 93.1639H237.762V94.6759H231.498V82.2559C231.498 80.6959 231.21 79.4839 230.634 78.6199C230.082 77.7559 229.11 77.3239 227.718 77.3239C226.734 77.3239 225.942 77.5759 225.342 78.0799C224.766 78.5599 224.346 79.2079 224.082 80.0239C223.842 80.8399 223.722 81.7279 223.722 82.6879V90.5719C223.722 91.3159 223.842 91.8799 224.082 92.2639C224.322 92.6239 224.646 92.8639 225.054 92.9839C225.486 93.1039 225.966 93.1639 226.494 93.1639H226.602V94.6759H220.338V82.2559C220.338 80.6959 220.05 79.4839 219.474 78.6199C218.922 77.7559 217.95 77.3239 216.558 77.3239C215.526 77.3239 214.698 77.5999 214.074 78.1519C213.474 78.6799 213.042 79.3879 212.778 80.2759C212.514 81.1639 212.382 82.1239 212.382 83.1559V90.7519C212.382 91.4479 212.514 91.9759 212.778 92.3359C213.066 92.6719 213.426 92.8999 213.858 93.0199C214.314 93.1159 214.806 93.1639 215.334 93.1639H215.442V94.6759H205.758ZM249.113 95.0359C246.497 95.0359 244.445 94.1719 242.957 92.4439C241.493 90.7159 240.761 88.2919 240.761 85.1719C240.761 81.8119 241.457 79.2799 242.849 77.5759C244.241 75.8719 246.209 75.0199 248.753 75.0199C251.081 75.0199 252.905 75.7399 254.225 77.1799C255.569 78.6199 256.241 80.7679 256.241 83.6239V85.2799H244.253C244.301 87.0319 244.529 88.4599 244.937 89.5639C245.345 90.6679 245.933 91.4839 246.701 92.0119C247.493 92.5159 248.465 92.7679 249.617 92.7679C250.457 92.7679 251.201 92.6479 251.849 92.4079C252.521 92.1679 253.097 91.8559 253.577 91.4719C254.081 91.0879 254.477 90.6799 254.765 90.2479C254.933 90.3199 255.089 90.4639 255.233 90.6799C255.377 90.8959 255.449 91.1599 255.449 91.4719C255.449 91.9519 255.221 92.4679 254.765 93.0199C254.309 93.5719 253.613 94.0519 252.677 94.4599C251.741 94.8439 250.553 95.0359 249.113 95.0359ZM252.605 83.3359C252.605 82.0639 252.473 80.9479 252.209 79.9879C251.969 79.0279 251.561 78.2839 250.985 77.7559C250.409 77.2279 249.641 76.9639 248.681 76.9639C247.793 76.9639 247.037 77.2159 246.413 77.7199C245.813 78.1999 245.333 78.9079 244.973 79.8439C244.637 80.7799 244.421 81.9439 244.325 83.3359H252.605ZM265.607 95.0359C264.407 95.0359 263.363 94.8919 262.475 94.6039C261.587 94.3159 260.891 93.8959 260.387 93.3439C259.907 92.7679 259.667 92.0599 259.667 91.2199C259.667 90.5719 259.799 90.0679 260.063 89.7079C260.327 89.3479 260.627 89.0959 260.963 88.9519C261.323 88.8079 261.647 88.7359 261.935 88.7359C261.935 89.5759 262.055 90.3439 262.295 91.0399C262.535 91.7359 262.943 92.2879 263.519 92.6959C264.095 93.1039 264.863 93.3079 265.823 93.3079C267.095 93.3079 268.067 93.0079 268.739 92.4079C269.435 91.7839 269.783 90.9919 269.783 90.0319C269.783 89.4319 269.651 88.9399 269.387 88.5559C269.147 88.1719 268.703 87.7999 268.055 87.4399C267.431 87.0559 266.531 86.6119 265.355 86.1079C264.131 85.5559 263.111 85.0279 262.295 84.5239C261.503 83.9959 260.903 83.3959 260.495 82.7239C260.111 82.0279 259.919 81.1639 259.919 80.1319C259.919 78.4999 260.531 77.2519 261.755 76.3879C263.003 75.4999 264.647 75.0559 266.687 75.0559C267.839 75.0559 268.799 75.2119 269.567 75.5239C270.359 75.8119 270.947 76.2079 271.331 76.7119C271.739 77.2159 271.943 77.7679 271.943 78.3679C271.943 79.0159 271.715 79.5439 271.259 79.9519C270.827 80.3359 270.191 80.5279 269.351 80.5279C269.351 79.3279 269.099 78.3919 268.595 77.7199C268.091 77.0479 267.311 76.7119 266.255 76.7119C265.439 76.7119 264.779 76.8319 264.275 77.0719C263.771 77.3119 263.399 77.6479 263.159 78.0799C262.943 78.5119 262.835 79.0159 262.835 79.5919C262.835 80.1919 262.979 80.6959 263.267 81.1039C263.579 81.5119 264.059 81.8959 264.707 82.2559C265.379 82.5919 266.243 82.9759 267.299 83.4079C268.571 83.9359 269.603 84.4639 270.395 84.9919C271.187 85.5199 271.763 86.1319 272.123 86.8279C272.507 87.5239 272.699 88.3759 272.699 89.3839C272.699 91.2559 272.051 92.6719 270.755 93.6319C269.459 94.5679 267.743 95.0359 265.607 95.0359Z" fill="black"/>
<path opacity="0.8" d="M115.8 124.676V124.172H116.076C116.252 124.172 116.412 124.156 116.556 124.124C116.708 124.084 116.828 124.008 116.916 123.896C117.012 123.776 117.06 123.6 117.06 123.368V116.708H115.908C115.676 116.708 115.492 116.756 115.356 116.852C115.22 116.94 115.12 117.06 115.056 117.212C114.992 117.356 114.948 117.516 114.924 117.692L114.864 118.208H114.24L114.3 116.108H121.056L121.116 118.208H120.492L120.432 117.692C120.416 117.516 120.372 117.356 120.3 117.212C120.236 117.06 120.136 116.94 120 116.852C119.864 116.756 119.676 116.708 119.436 116.708H118.272V123.308C118.272 123.556 118.316 123.744 118.404 123.872C118.492 123.992 118.612 124.072 118.764 124.112C118.916 124.152 119.08 124.172 119.256 124.172H119.532V124.676H115.8ZM132.375 124.676V124.172H132.471C132.655 124.172 132.819 124.152 132.963 124.112C133.115 124.072 133.235 123.992 133.323 123.872C133.411 123.744 133.455 123.556 133.455 123.308V116.876C133.455 116.636 133.407 116.46 133.311 116.348C133.223 116.228 133.103 116.152 132.951 116.12C132.807 116.08 132.647 116.06 132.471 116.06H132.375V115.556H134.583V118.196C134.583 118.34 134.579 118.492 134.571 118.652C134.563 118.804 134.555 118.936 134.547 119.048C134.539 119.16 134.535 119.216 134.535 119.216H134.595C134.715 118.976 134.859 118.776 135.027 118.616C135.203 118.448 135.399 118.324 135.615 118.244C135.839 118.164 136.087 118.124 136.359 118.124C137.047 118.124 137.571 118.312 137.931 118.688C138.299 119.056 138.483 119.652 138.483 120.476V123.308C138.483 123.556 138.523 123.744 138.603 123.872C138.683 123.992 138.791 124.072 138.927 124.112C139.071 124.152 139.231 124.172 139.407 124.172H139.443V124.676H137.355V120.536C137.355 120.016 137.255 119.612 137.055 119.324C136.863 119.036 136.523 118.892 136.035 118.892C135.707 118.892 135.435 118.972 135.219 119.132C135.003 119.292 134.843 119.52 134.739 119.816C134.635 120.104 134.583 120.444 134.583 120.836V123.368C134.583 123.6 134.627 123.776 134.715 123.896C134.811 124.008 134.931 124.084 135.075 124.124C135.227 124.156 135.391 124.172 135.567 124.172H135.603V124.676H132.375ZM154.02 124.796C153.148 124.796 152.464 124.508 151.968 123.932C151.48 123.356 151.236 122.548 151.236 121.508C151.236 120.388 151.468 119.544 151.932 118.976C152.396 118.408 153.052 118.124 153.9 118.124C154.676 118.124 155.284 118.364 155.724 118.844C156.172 119.324 156.396 120.04 156.396 120.992V121.544H152.4C152.416 122.128 152.492 122.604 152.628 122.972C152.764 123.34 152.96 123.612 153.216 123.788C153.48 123.956 153.804 124.04 154.188 124.04C154.468 124.04 154.716 124 154.932 123.92C155.156 123.84 155.348 123.736 155.508 123.608C155.676 123.48 155.808 123.344 155.904 123.2C155.96 123.224 156.012 123.272 156.06 123.344C156.108 123.416 156.132 123.504 156.132 123.608C156.132 123.768 156.056 123.94 155.904 124.124C155.752 124.308 155.52 124.468 155.208 124.604C154.896 124.732 154.5 124.796 154.02 124.796ZM155.184 120.896C155.184 120.472 155.14 120.1 155.052 119.78C154.972 119.46 154.836 119.212 154.644 119.036C154.452 118.86 154.196 118.772 153.876 118.772C153.58 118.772 153.328 118.856 153.12 119.024C152.92 119.184 152.76 119.42 152.64 119.732C152.528 120.044 152.456 120.432 152.424 120.896H155.184ZM168.194 124.676V124.172H168.23C168.414 124.172 168.578 124.152 168.722 124.112C168.874 124.072 168.994 123.992 169.082 123.872C169.17 123.744 169.214 123.556 169.214 123.308V119.564C169.214 119.324 169.166 119.148 169.07 119.036C168.982 118.916 168.862 118.84 168.71 118.808C168.566 118.768 168.406 118.748 168.23 118.748H168.194V118.244H170.042L170.27 119.432H170.33C170.434 119.192 170.546 118.972 170.666 118.772C170.786 118.572 170.946 118.416 171.146 118.304C171.346 118.184 171.622 118.124 171.974 118.124C172.414 118.124 172.738 118.2 172.946 118.352C173.162 118.504 173.27 118.72 173.27 119C173.27 119.248 173.182 119.452 173.006 119.612C172.838 119.772 172.554 119.852 172.154 119.852C172.154 119.628 172.134 119.448 172.094 119.312C172.054 119.176 171.986 119.076 171.89 119.012C171.802 118.948 171.678 118.916 171.518 118.916C171.294 118.916 171.106 119.004 170.954 119.18C170.802 119.356 170.682 119.58 170.594 119.852C170.506 120.124 170.442 120.408 170.402 120.704C170.362 120.992 170.342 121.252 170.342 121.484V123.368C170.342 123.6 170.386 123.776 170.474 123.896C170.57 124.008 170.69 124.084 170.834 124.124C170.986 124.156 171.15 124.172 171.326 124.172H171.662V124.676H168.194ZM186.472 124.796C186.12 124.796 185.8 124.728 185.512 124.592C185.232 124.448 185.012 124.236 184.852 123.956C184.692 123.668 184.612 123.308 184.612 122.876C184.612 122.236 184.836 121.764 185.284 121.46C185.74 121.156 186.428 120.988 187.348 120.956L188.344 120.92V120.2C188.344 119.912 188.32 119.66 188.272 119.444C188.224 119.22 188.12 119.044 187.96 118.916C187.8 118.788 187.556 118.724 187.228 118.724C186.924 118.724 186.692 118.78 186.532 118.892C186.372 119.004 186.264 119.16 186.208 119.36C186.16 119.552 186.136 119.776 186.136 120.032C185.8 120.032 185.544 119.976 185.368 119.864C185.2 119.744 185.116 119.548 185.116 119.276C185.116 118.996 185.212 118.772 185.404 118.604C185.604 118.436 185.868 118.316 186.196 118.244C186.524 118.164 186.884 118.124 187.276 118.124C188.012 118.124 188.56 118.28 188.92 118.592C189.288 118.904 189.472 119.44 189.472 120.2V123.308C189.472 123.532 189.496 123.708 189.544 123.836C189.592 123.956 189.672 124.044 189.784 124.1C189.896 124.148 190.04 124.172 190.216 124.172H190.252V124.676H188.632L188.44 123.644H188.344C188.176 123.868 188.012 124.068 187.852 124.244C187.692 124.412 187.504 124.548 187.288 124.652C187.08 124.748 186.808 124.796 186.472 124.796ZM186.748 124.052C187.076 124.052 187.356 123.984 187.588 123.848C187.828 123.712 188.012 123.52 188.14 123.272C188.276 123.016 188.344 122.72 188.344 122.384V121.412L187.576 121.448C187.12 121.464 186.76 121.532 186.496 121.652C186.24 121.772 186.056 121.94 185.944 122.156C185.832 122.364 185.776 122.624 185.776 122.936C185.776 123.184 185.812 123.392 185.884 123.56C185.956 123.72 186.064 123.844 186.208 123.932C186.352 124.012 186.532 124.052 186.748 124.052ZM201.79 127.556V127.052H201.886C202.07 127.052 202.234 127.032 202.378 126.992C202.53 126.952 202.65 126.868 202.738 126.74C202.826 126.62 202.87 126.436 202.87 126.188V119.564C202.87 119.324 202.822 119.148 202.726 119.036C202.638 118.916 202.518 118.84 202.366 118.808C202.222 118.768 202.062 118.748 201.886 118.748H201.73V118.244H203.83L203.95 119.324H203.998C204.182 118.956 204.418 118.664 204.706 118.448C204.994 118.232 205.37 118.124 205.834 118.124C206.626 118.124 207.23 118.392 207.646 118.928C208.07 119.456 208.282 120.296 208.282 121.448C208.282 122.608 208.07 123.456 207.646 123.992C207.23 124.528 206.626 124.796 205.834 124.796C205.37 124.796 204.99 124.7 204.694 124.508C204.406 124.308 204.174 124.052 203.998 123.74H203.95C203.966 123.892 203.974 124.056 203.974 124.232C203.982 124.4 203.986 124.56 203.986 124.712C203.994 124.864 203.998 124.992 203.998 125.096V126.248C203.998 126.48 204.042 126.652 204.13 126.764C204.226 126.884 204.346 126.96 204.49 126.992C204.642 127.032 204.806 127.052 204.982 127.052H205.018V127.556H201.79ZM205.642 124.028C205.994 124.028 206.278 123.928 206.494 123.728C206.71 123.528 206.866 123.236 206.962 122.852C207.066 122.468 207.118 121.996 207.118 121.436C207.118 120.868 207.066 120.396 206.962 120.02C206.866 119.644 206.71 119.364 206.494 119.18C206.278 118.988 205.99 118.892 205.63 118.892C205.214 118.892 204.886 118.984 204.646 119.168C204.414 119.352 204.246 119.636 204.142 120.02C204.046 120.396 203.998 120.872 203.998 121.448C203.998 122 204.046 122.468 204.142 122.852C204.246 123.236 204.418 123.528 204.658 123.728C204.898 123.928 205.226 124.028 205.642 124.028ZM219.967 126.992C220.375 126.992 220.727 126.932 221.023 126.812C221.319 126.692 221.571 126.524 221.779 126.308C221.987 126.1 222.163 125.852 222.307 125.564C222.451 125.276 222.571 124.964 222.667 124.628L220.447 119.384C220.375 119.216 220.303 119.088 220.231 119C220.159 118.904 220.075 118.84 219.979 118.808C219.883 118.768 219.755 118.748 219.595 118.748H219.559V118.244H222.439V118.748H222.403C222.163 118.748 221.983 118.796 221.863 118.892C221.743 118.98 221.683 119.124 221.683 119.324C221.683 119.388 221.691 119.456 221.707 119.528C221.723 119.6 221.747 119.68 221.779 119.768L222.655 121.904C222.711 122.04 222.767 122.188 222.823 122.348C222.887 122.508 222.947 122.668 223.003 122.828C223.059 122.988 223.107 123.14 223.147 123.284C223.187 123.428 223.215 123.548 223.231 123.644C223.287 123.412 223.359 123.172 223.447 122.924C223.543 122.676 223.631 122.432 223.711 122.192L224.515 119.852C224.555 119.756 224.583 119.664 224.599 119.576C224.615 119.48 224.623 119.4 224.623 119.336C224.623 119.128 224.555 118.98 224.419 118.892C224.291 118.796 224.095 118.748 223.831 118.748H223.795V118.244H226.291V118.748H226.255C226.103 118.748 225.975 118.772 225.871 118.82C225.767 118.868 225.675 118.96 225.595 119.096C225.523 119.232 225.439 119.428 225.343 119.684L223.519 124.724C223.311 125.308 223.111 125.784 222.919 126.152C222.727 126.52 222.511 126.804 222.271 127.004C222.039 127.212 221.747 127.356 221.395 127.436C221.043 127.516 220.603 127.556 220.075 127.556H219.967V126.992Z" fill="#B8C6B2"/>
</svg>
