<svg width="261" height="58" viewBox="0 0 261 58" fill="none" xmlns="http://www.w3.org/2000/svg">
<g clip-path="url(#clip0_1_2)">
<rect width="261" height="58" fill="white"/>
<path d="M6.86243 17.835C9.34365 16.0323 13.3641 17.3364 15.8429 20.748C18.3215 24.1596 18.3199 28.3866 15.839 30.1895C13.3577 31.9922 9.3363 30.6881 6.85754 27.2764C4.37882 23.8647 4.38119 19.6377 6.86243 17.835ZM23.5177 20.748C25.9964 17.3364 30.0169 16.0323 32.4982 17.835C34.9794 19.6377 34.9818 23.8647 32.5031 27.2764C30.0243 30.6881 26.0028 31.9922 23.5216 30.1895C21.0407 28.3866 21.0391 24.1596 23.5177 20.748ZM19.6808 6.6582C22.7119 6.65854 25.169 10.0608 25.1691 14.2578C25.1691 18.4549 22.7119 21.8571 19.6808 21.8574C16.6494 21.8574 14.1915 18.4551 14.1915 14.2578C14.1916 10.0606 16.6495 6.6582 19.6808 6.6582Z" fill="#7C8F73"/>
<path d="M54.8921 32.36C53.7161 32.36 52.6721 32.24 51.7601 32C50.8721 31.76 50.1281 31.412 49.5281 30.956C48.9281 30.5 48.4721 29.96 48.1601 29.336C47.8721 28.712 47.7281 28.028 47.7281 27.284C47.7281 26.804 47.8241 26.384 48.0161 26.024C48.2321 25.664 48.5321 25.388 48.9161 25.196C49.3001 24.98 49.7681 24.872 50.3201 24.872C50.3681 25.856 50.5601 26.792 50.8961 27.68C51.2321 28.544 51.7481 29.252 52.4441 29.804C53.1401 30.332 54.0521 30.596 55.1801 30.596C56.7881 30.596 58.0481 30.212 58.9601 29.444C59.8721 28.652 60.3281 27.524 60.3281 26.06C60.3281 25.172 60.1481 24.428 59.7881 23.828C59.4521 23.204 58.8761 22.628 58.0601 22.1C57.2681 21.572 56.1641 21.02 54.7481 20.444C53.6441 19.988 52.6721 19.496 51.8321 18.968C50.9921 18.44 50.2961 17.864 49.7441 17.24C49.2161 16.616 48.8081 15.908 48.5201 15.116C48.2561 14.324 48.1241 13.436 48.1241 12.452C48.1241 11.084 48.4601 9.92 49.1321 8.96C49.8281 7.976 50.7641 7.232 51.9401 6.728C53.1401 6.2 54.4961 5.936 56.0081 5.936C57.4481 5.936 58.6601 6.128 59.6441 6.512C60.6521 6.896 61.4201 7.4 61.9481 8.024C62.4761 8.624 62.7401 9.272 62.7401 9.968C62.7401 10.736 62.4761 11.324 61.9481 11.732C61.4441 12.116 60.7601 12.308 59.8961 12.308C59.8961 11.564 59.7641 10.844 59.5001 10.148C59.2601 9.452 58.8401 8.876 58.2401 8.42C57.6641 7.964 56.8721 7.736 55.8641 7.736C54.9521 7.736 54.1601 7.904 53.4881 8.24C52.8401 8.576 52.3361 9.056 51.9761 9.68C51.6401 10.28 51.4721 11 51.4721 11.84C51.4721 12.8 51.6401 13.616 51.9761 14.288C52.3361 14.936 52.9241 15.524 53.7401 16.052C54.5561 16.556 55.6601 17.096 57.0521 17.672C58.4681 18.248 59.6681 18.884 60.6521 19.58C61.6601 20.252 62.4281 21.032 62.9561 21.92C63.4841 22.808 63.7481 23.876 63.7481 25.124C63.7481 26.66 63.3881 27.968 62.6681 29.048C61.9481 30.104 60.9161 30.92 59.5721 31.496C58.2521 32.072 56.6921 32.36 54.8921 32.36ZM72.9622 32.36C71.9062 32.36 70.9462 32.156 70.0822 31.748C69.2422 31.316 68.5822 30.68 68.1022 29.84C67.6222 28.976 67.3822 27.896 67.3822 26.6C67.3822 24.68 68.0542 23.264 69.3982 22.352C70.7662 21.44 72.8302 20.936 75.5902 20.84L78.5782 20.732V18.572C78.5782 17.708 78.5062 16.952 78.3622 16.304C78.2182 15.632 77.9062 15.104 77.4262 14.72C76.9462 14.336 76.2142 14.144 75.2302 14.144C74.3182 14.144 73.6222 14.312 73.1422 14.648C72.6622 14.984 72.3382 15.452 72.1702 16.052C72.0262 16.628 71.9542 17.3 71.9542 18.068C70.9462 18.068 70.1782 17.9 69.6502 17.564C69.1462 17.204 68.8942 16.616 68.8942 15.8C68.8942 14.96 69.1822 14.288 69.7582 13.784C70.3582 13.28 71.1502 12.92 72.1342 12.704C73.1182 12.464 74.1982 12.344 75.3742 12.344C77.5822 12.344 79.2262 12.812 80.3062 13.748C81.4102 14.684 81.9622 16.292 81.9622 18.572V27.896C81.9622 28.568 82.0342 29.096 82.1782 29.48C82.3222 29.84 82.5622 30.104 82.8982 30.272C83.2342 30.416 83.6662 30.488 84.1942 30.488H84.3022V32H79.4422L78.8662 28.904H78.5782C78.0742 29.576 77.5822 30.176 77.1022 30.704C76.6222 31.208 76.0582 31.616 75.4102 31.928C74.7862 32.216 73.9702 32.36 72.9622 32.36ZM73.7902 30.128C74.7742 30.128 75.6142 29.924 76.3102 29.516C77.0302 29.108 77.5822 28.532 77.9662 27.788C78.3742 27.02 78.5782 26.132 78.5782 25.124V22.208L76.2742 22.316C74.9062 22.364 73.8262 22.568 73.0342 22.928C72.2662 23.288 71.7142 23.792 71.3782 24.44C71.0422 25.064 70.8742 25.844 70.8742 26.78C70.8742 27.524 70.9822 28.148 71.1982 28.652C71.4142 29.132 71.7382 29.504 72.1702 29.768C72.6022 30.008 73.1422 30.128 73.7902 30.128ZM87.0553 32V30.488H87.1633C87.7153 30.488 88.2073 30.428 88.6393 30.308C89.0953 30.188 89.4553 29.948 89.7193 29.588C89.9833 29.204 90.1153 28.64 90.1153 27.896V16.664C90.1153 15.944 89.9713 15.416 89.6833 15.08C89.4193 14.72 89.0593 14.492 88.6033 14.396C88.1713 14.276 87.6913 14.216 87.1633 14.216H87.0553V12.704H92.5993L93.2833 16.268H93.4633C93.7753 15.548 94.1113 14.888 94.4713 14.288C94.8313 13.688 95.3113 13.22 95.9113 12.884C96.5113 12.524 97.3393 12.344 98.3953 12.344C99.7153 12.344 100.687 12.572 101.311 13.028C101.959 13.484 102.283 14.132 102.283 14.972C102.283 15.716 102.019 16.328 101.491 16.808C100.987 17.288 100.135 17.528 98.9353 17.528C98.9353 16.856 98.8753 16.316 98.7553 15.908C98.6353 15.5 98.4313 15.2 98.1433 15.008C97.8793 14.816 97.5073 14.72 97.0273 14.72C96.3553 14.72 95.7913 14.984 95.3353 15.512C94.8793 16.04 94.5193 16.712 94.2553 17.528C93.9913 18.344 93.7993 19.196 93.6793 20.084C93.5593 20.948 93.4993 21.728 93.4993 22.424V28.076C93.4993 28.772 93.6313 29.3 93.8953 29.66C94.1833 29.996 94.5433 30.224 94.9753 30.344C95.4313 30.44 95.9233 30.488 96.4513 30.488H97.4593V32H87.0553ZM109.489 32.36C108.433 32.36 107.473 32.156 106.609 31.748C105.769 31.316 105.109 30.68 104.629 29.84C104.149 28.976 103.909 27.896 103.909 26.6C103.909 24.68 104.581 23.264 105.925 22.352C107.293 21.44 109.357 20.936 112.117 20.84L115.105 20.732V18.572C115.105 17.708 115.033 16.952 114.889 16.304C114.745 15.632 114.433 15.104 113.953 14.72C113.473 14.336 112.741 14.144 111.757 14.144C110.845 14.144 110.149 14.312 109.669 14.648C109.189 14.984 108.865 15.452 108.697 16.052C108.553 16.628 108.481 17.3 108.481 18.068C107.473 18.068 106.705 17.9 106.177 17.564C105.673 17.204 105.421 16.616 105.421 15.8C105.421 14.96 105.709 14.288 106.285 13.784C106.885 13.28 107.677 12.92 108.661 12.704C109.645 12.464 110.725 12.344 111.901 12.344C114.109 12.344 115.753 12.812 116.833 13.748C117.937 14.684 118.489 16.292 118.489 18.572V27.896C118.489 28.568 118.561 29.096 118.705 29.48C118.849 29.84 119.089 30.104 119.425 30.272C119.761 30.416 120.193 30.488 120.721 30.488H120.829V32H115.969L115.393 28.904H115.105C114.601 29.576 114.109 30.176 113.629 30.704C113.149 31.208 112.585 31.616 111.937 31.928C111.313 32.216 110.497 32.36 109.489 32.36ZM110.317 30.128C111.301 30.128 112.141 29.924 112.837 29.516C113.557 29.108 114.109 28.532 114.493 27.788C114.901 27.02 115.105 26.132 115.105 25.124V22.208L112.801 22.316C111.433 22.364 110.353 22.568 109.561 22.928C108.793 23.288 108.241 23.792 107.905 24.44C107.569 25.064 107.401 25.844 107.401 26.78C107.401 27.524 107.509 28.148 107.725 28.652C107.941 29.132 108.265 29.504 108.697 29.768C109.129 30.008 109.669 30.128 110.317 30.128ZM123.043 32V30.488H123.331C123.883 30.488 124.375 30.428 124.807 30.308C125.263 30.188 125.623 29.948 125.887 29.588C126.151 29.204 126.283 28.64 126.283 27.896V8.6C126.283 7.88 126.139 7.352 125.851 7.016C125.587 6.656 125.227 6.428 124.771 6.332C124.339 6.212 123.859 6.152 123.331 6.152H123.043V4.64H129.667V12.56C129.667 12.992 129.655 13.448 129.631 13.928C129.607 14.384 129.583 14.78 129.559 15.116C129.535 15.452 129.523 15.62 129.523 15.62H129.703C130.063 14.9 130.495 14.3 130.999 13.82C131.527 13.316 132.115 12.944 132.763 12.704C133.435 12.464 134.179 12.344 134.995 12.344C137.059 12.344 138.631 12.908 139.711 14.036C140.815 15.14 141.367 16.928 141.367 19.4V27.896C141.367 28.64 141.487 29.204 141.727 29.588C141.967 29.948 142.291 30.188 142.699 30.308C143.131 30.428 143.611 30.488 144.139 30.488H144.247V32H137.983V19.58C137.983 18.02 137.683 16.808 137.083 15.944C136.507 15.08 135.487 14.648 134.023 14.648C133.039 14.648 132.223 14.888 131.575 15.368C130.927 15.848 130.447 16.532 130.135 17.42C129.823 18.284 129.667 19.304 129.667 20.48V28.076C129.667 28.772 129.799 29.3 130.063 29.66C130.351 29.996 130.711 30.224 131.143 30.344C131.599 30.44 132.091 30.488 132.619 30.488H132.727V32H123.043ZM154.202 40.64V38.948H154.526C155.558 38.948 156.434 38.744 157.154 38.336C157.874 37.952 158.426 37.268 158.81 36.284C159.194 35.324 159.386 34.004 159.386 32.324V10.256C159.386 9.536 159.242 9.008 158.954 8.672C158.69 8.312 158.33 8.084 157.874 7.988C157.442 7.868 156.962 7.808 156.434 7.808H155.966V6.296H166.442V7.808H165.974C165.446 7.808 164.954 7.868 164.498 7.988C164.042 8.108 163.682 8.348 163.418 8.708C163.154 9.068 163.022 9.632 163.022 10.4V32.288C163.022 33.896 162.806 35.24 162.374 36.32C161.966 37.4 161.39 38.252 160.646 38.876C159.902 39.5 159.026 39.944 158.018 40.208C157.034 40.496 155.966 40.64 154.814 40.64H154.202ZM174.845 32.36C173.789 32.36 172.829 32.156 171.965 31.748C171.125 31.316 170.465 30.68 169.985 29.84C169.505 28.976 169.265 27.896 169.265 26.6C169.265 24.68 169.937 23.264 171.281 22.352C172.649 21.44 174.713 20.936 177.473 20.84L180.461 20.732V18.572C180.461 17.708 180.389 16.952 180.245 16.304C180.101 15.632 179.789 15.104 179.309 14.72C178.829 14.336 178.097 14.144 177.113 14.144C176.201 14.144 175.505 14.312 175.025 14.648C174.545 14.984 174.221 15.452 174.053 16.052C173.909 16.628 173.837 17.3 173.837 18.068C172.829 18.068 172.061 17.9 171.533 17.564C171.029 17.204 170.777 16.616 170.777 15.8C170.777 14.96 171.065 14.288 171.641 13.784C172.241 13.28 173.033 12.92 174.017 12.704C175.001 12.464 176.081 12.344 177.257 12.344C179.465 12.344 181.109 12.812 182.189 13.748C183.293 14.684 183.845 16.292 183.845 18.572V27.896C183.845 28.568 183.917 29.096 184.061 29.48C184.205 29.84 184.445 30.104 184.781 30.272C185.117 30.416 185.549 30.488 186.077 30.488H186.185V32H181.325L180.749 28.904H180.461C179.957 29.576 179.465 30.176 178.985 30.704C178.505 31.208 177.941 31.616 177.293 31.928C176.669 32.216 175.853 32.36 174.845 32.36ZM175.673 30.128C176.657 30.128 177.497 29.924 178.193 29.516C178.913 29.108 179.465 28.532 179.849 27.788C180.257 27.02 180.461 26.132 180.461 25.124V22.208L178.157 22.316C176.789 22.364 175.709 22.568 174.917 22.928C174.149 23.288 173.597 23.792 173.261 24.44C172.925 25.064 172.757 25.844 172.757 26.78C172.757 27.524 172.865 28.148 173.081 28.652C173.297 29.132 173.621 29.504 174.053 29.768C174.485 30.008 175.025 30.128 175.673 30.128ZM188.758 32V30.488H189.226C189.778 30.488 190.258 30.428 190.666 30.308C191.074 30.188 191.398 29.948 191.638 29.588C191.878 29.204 191.998 28.64 191.998 27.896V16.664C191.998 15.944 191.878 15.416 191.638 15.08C191.398 14.72 191.062 14.492 190.63 14.396C190.222 14.276 189.754 14.216 189.226 14.216H189.118V12.704H194.77L195.238 15.62H195.418C195.898 14.708 196.414 14.024 196.966 13.568C197.518 13.088 198.118 12.764 198.766 12.596C199.414 12.428 200.11 12.344 200.854 12.344C201.622 12.344 202.342 12.452 203.014 12.668C203.71 12.884 204.322 13.232 204.85 13.712C205.378 14.168 205.786 14.804 206.074 15.62H206.362C206.842 14.708 207.37 14.024 207.946 13.568C208.546 13.088 209.182 12.764 209.854 12.596C210.55 12.428 211.27 12.344 212.014 12.344C213.862 12.344 215.302 12.908 216.334 14.036C217.366 15.14 217.882 16.928 217.882 19.4V27.896C217.882 28.64 218.002 29.204 218.242 29.588C218.482 29.948 218.806 30.188 219.214 30.308C219.646 30.428 220.126 30.488 220.654 30.488H220.762V32H214.498V19.58C214.498 18.02 214.21 16.808 213.634 15.944C213.082 15.08 212.11 14.648 210.718 14.648C209.734 14.648 208.942 14.9 208.342 15.404C207.766 15.884 207.346 16.532 207.082 17.348C206.842 18.164 206.722 19.052 206.722 20.012V27.896C206.722 28.64 206.842 29.204 207.082 29.588C207.322 29.948 207.646 30.188 208.054 30.308C208.486 30.428 208.966 30.488 209.494 30.488H209.602V32H203.338V19.58C203.338 18.02 203.05 16.808 202.474 15.944C201.922 15.08 200.95 14.648 199.558 14.648C198.526 14.648 197.698 14.924 197.074 15.476C196.474 16.004 196.042 16.712 195.778 17.6C195.514 18.488 195.382 19.448 195.382 20.48V28.076C195.382 28.772 195.514 29.3 195.778 29.66C196.066 29.996 196.426 30.224 196.858 30.344C197.314 30.44 197.806 30.488 198.334 30.488H198.442V32H188.758ZM232.113 32.36C229.497 32.36 227.445 31.496 225.957 29.768C224.493 28.04 223.761 25.616 223.761 22.496C223.761 19.136 224.457 16.604 225.849 14.9C227.241 13.196 229.209 12.344 231.753 12.344C234.081 12.344 235.905 13.064 237.225 14.504C238.569 15.944 239.241 18.092 239.241 20.948V22.604H227.253C227.301 24.356 227.529 25.784 227.937 26.888C228.345 27.992 228.933 28.808 229.701 29.336C230.493 29.84 231.465 30.092 232.617 30.092C233.457 30.092 234.201 29.972 234.849 29.732C235.521 29.492 236.097 29.18 236.577 28.796C237.081 28.412 237.477 28.004 237.765 27.572C237.933 27.644 238.089 27.788 238.233 28.004C238.377 28.22 238.449 28.484 238.449 28.796C238.449 29.276 238.221 29.792 237.765 30.344C237.309 30.896 236.613 31.376 235.677 31.784C234.741 32.168 233.553 32.36 232.113 32.36ZM235.605 20.66C235.605 19.388 235.473 18.272 235.209 17.312C234.969 16.352 234.561 15.608 233.985 15.08C233.409 14.552 232.641 14.288 231.681 14.288C230.793 14.288 230.037 14.54 229.413 15.044C228.813 15.524 228.333 16.232 227.973 17.168C227.637 18.104 227.421 19.268 227.325 20.66H235.605ZM248.607 32.36C247.407 32.36 246.363 32.216 245.475 31.928C244.587 31.64 243.891 31.22 243.387 30.668C242.907 30.092 242.667 29.384 242.667 28.544C242.667 27.896 242.799 27.392 243.063 27.032C243.327 26.672 243.627 26.42 243.963 26.276C244.323 26.132 244.647 26.06 244.935 26.06C244.935 26.9 245.055 27.668 245.295 28.364C245.535 29.06 245.943 29.612 246.519 30.02C247.095 30.428 247.863 30.632 248.823 30.632C250.095 30.632 251.067 30.332 251.739 29.732C252.435 29.108 252.783 28.316 252.783 27.356C252.783 26.756 252.651 26.264 252.387 25.88C252.147 25.496 251.703 25.124 251.055 24.764C250.431 24.38 249.531 23.936 248.355 23.432C247.131 22.88 246.111 22.352 245.295 21.848C244.503 21.32 243.903 20.72 243.495 20.048C243.111 19.352 242.919 18.488 242.919 17.456C242.919 15.824 243.531 14.576 244.755 13.712C246.003 12.824 247.647 12.38 249.687 12.38C250.839 12.38 251.799 12.536 252.567 12.848C253.359 13.136 253.947 13.532 254.331 14.036C254.739 14.54 254.943 15.092 254.943 15.692C254.943 16.34 254.715 16.868 254.259 17.276C253.827 17.66 253.191 17.852 252.351 17.852C252.351 16.652 252.099 15.716 251.595 15.044C251.091 14.372 250.311 14.036 249.255 14.036C248.439 14.036 247.779 14.156 247.275 14.396C246.771 14.636 246.399 14.972 246.159 15.404C245.943 15.836 245.835 16.34 245.835 16.916C245.835 17.516 245.979 18.02 246.267 18.428C246.579 18.836 247.059 19.22 247.707 19.58C248.379 19.916 249.243 20.3 250.299 20.732C251.571 21.26 252.603 21.788 253.395 22.316C254.187 22.844 254.763 23.456 255.123 24.152C255.507 24.848 255.699 25.7 255.699 26.708C255.699 28.58 255.051 29.996 253.755 30.956C252.459 31.892 250.743 32.36 248.607 32.36Z" fill="black"/>
<path opacity="0.8" d="M47.8001 52V51.496H48.0761C48.2521 51.496 48.4121 51.48 48.5561 51.448C48.7081 51.408 48.8281 51.332 48.9161 51.22C49.0121 51.1 49.0601 50.924 49.0601 50.692V44.032H47.9081C47.6761 44.032 47.4921 44.08 47.3561 44.176C47.2201 44.264 47.1201 44.384 47.0561 44.536C46.9921 44.68 46.9481 44.84 46.9241 45.016L46.8641 45.532H46.2401L46.3001 43.432H53.0561L53.1161 45.532H52.4921L52.4321 45.016C52.4161 44.84 52.3721 44.68 52.3001 44.536C52.2361 44.384 52.1361 44.264 52.0001 44.176C51.8641 44.08 51.6761 44.032 51.4361 44.032H50.2721V50.632C50.2721 50.88 50.3161 51.068 50.4041 51.196C50.4921 51.316 50.6121 51.396 50.7641 51.436C50.9161 51.476 51.0801 51.496 51.2561 51.496H51.5321V52H47.8001ZM64.3755 52V51.496H64.4715C64.6555 51.496 64.8195 51.476 64.9635 51.436C65.1155 51.396 65.2355 51.316 65.3235 51.196C65.4115 51.068 65.4555 50.88 65.4555 50.632V44.2C65.4555 43.96 65.4075 43.784 65.3115 43.672C65.2235 43.552 65.1035 43.476 64.9515 43.444C64.8075 43.404 64.6475 43.384 64.4715 43.384H64.3755V42.88H66.5835V45.52C66.5835 45.664 66.5795 45.816 66.5715 45.976C66.5635 46.128 66.5555 46.26 66.5475 46.372C66.5395 46.484 66.5355 46.54 66.5355 46.54H66.5955C66.7155 46.3 66.8595 46.1 67.0275 45.94C67.2035 45.772 67.3995 45.648 67.6155 45.568C67.8395 45.488 68.0875 45.448 68.3595 45.448C69.0475 45.448 69.5715 45.636 69.9315 46.012C70.2995 46.38 70.4835 46.976 70.4835 47.8V50.632C70.4835 50.88 70.5235 51.068 70.6035 51.196C70.6835 51.316 70.7915 51.396 70.9275 51.436C71.0715 51.476 71.2315 51.496 71.4075 51.496H71.4435V52H69.3555V47.86C69.3555 47.34 69.2555 46.936 69.0555 46.648C68.8635 46.36 68.5235 46.216 68.0355 46.216C67.7075 46.216 67.4355 46.296 67.2195 46.456C67.0035 46.616 66.8435 46.844 66.7395 47.14C66.6355 47.428 66.5835 47.768 66.5835 48.16V50.692C66.5835 50.924 66.6275 51.1 66.7155 51.22C66.8115 51.332 66.9315 51.408 67.0755 51.448C67.2275 51.48 67.3915 51.496 67.5675 51.496H67.6035V52H64.3755ZM86.0207 52.12C85.1487 52.12 84.4647 51.832 83.9687 51.256C83.4807 50.68 83.2367 49.872 83.2367 48.832C83.2367 47.712 83.4687 46.868 83.9327 46.3C84.3967 45.732 85.0527 45.448 85.9007 45.448C86.6767 45.448 87.2847 45.688 87.7247 46.168C88.1727 46.648 88.3967 47.364 88.3967 48.316V48.868H84.4007C84.4167 49.452 84.4927 49.928 84.6287 50.296C84.7647 50.664 84.9607 50.936 85.2167 51.112C85.4807 51.28 85.8047 51.364 86.1887 51.364C86.4687 51.364 86.7167 51.324 86.9327 51.244C87.1567 51.164 87.3487 51.06 87.5087 50.932C87.6767 50.804 87.8087 50.668 87.9047 50.524C87.9607 50.548 88.0127 50.596 88.0607 50.668C88.1087 50.74 88.1327 50.828 88.1327 50.932C88.1327 51.092 88.0567 51.264 87.9047 51.448C87.7527 51.632 87.5207 51.792 87.2087 51.928C86.8967 52.056 86.5007 52.12 86.0207 52.12ZM87.1847 48.22C87.1847 47.796 87.1407 47.424 87.0527 47.104C86.9727 46.784 86.8367 46.536 86.6447 46.36C86.4527 46.184 86.1967 46.096 85.8767 46.096C85.5807 46.096 85.3287 46.18 85.1207 46.348C84.9207 46.508 84.7607 46.744 84.6407 47.056C84.5287 47.368 84.4567 47.756 84.4247 48.22H87.1847ZM100.195 52V51.496H100.231C100.415 51.496 100.579 51.476 100.723 51.436C100.875 51.396 100.995 51.316 101.083 51.196C101.171 51.068 101.215 50.88 101.215 50.632V46.888C101.215 46.648 101.167 46.472 101.071 46.36C100.983 46.24 100.863 46.164 100.711 46.132C100.567 46.092 100.407 46.072 100.231 46.072H100.195V45.568H102.043L102.271 46.756H102.331C102.435 46.516 102.547 46.296 102.667 46.096C102.787 45.896 102.947 45.74 103.147 45.628C103.347 45.508 103.623 45.448 103.975 45.448C104.415 45.448 104.739 45.524 104.947 45.676C105.163 45.828 105.271 46.044 105.271 46.324C105.271 46.572 105.183 46.776 105.007 46.936C104.839 47.096 104.555 47.176 104.155 47.176C104.155 46.952 104.135 46.772 104.095 46.636C104.055 46.5 103.987 46.4 103.891 46.336C103.803 46.272 103.679 46.24 103.519 46.24C103.295 46.24 103.107 46.328 102.955 46.504C102.803 46.68 102.683 46.904 102.595 47.176C102.507 47.448 102.443 47.732 102.403 48.028C102.363 48.316 102.343 48.576 102.343 48.808V50.692C102.343 50.924 102.387 51.1 102.475 51.22C102.571 51.332 102.691 51.408 102.835 51.448C102.987 51.48 103.151 51.496 103.327 51.496H103.663V52H100.195ZM118.473 52.12C118.121 52.12 117.801 52.052 117.513 51.916C117.233 51.772 117.013 51.56 116.853 51.28C116.693 50.992 116.613 50.632 116.613 50.2C116.613 49.56 116.837 49.088 117.285 48.784C117.741 48.48 118.429 48.312 119.349 48.28L120.345 48.244V47.524C120.345 47.236 120.321 46.984 120.273 46.768C120.225 46.544 120.121 46.368 119.961 46.24C119.801 46.112 119.557 46.048 119.229 46.048C118.925 46.048 118.693 46.104 118.533 46.216C118.373 46.328 118.265 46.484 118.209 46.684C118.161 46.876 118.137 47.1 118.137 47.356C117.801 47.356 117.545 47.3 117.369 47.188C117.201 47.068 117.117 46.872 117.117 46.6C117.117 46.32 117.213 46.096 117.405 45.928C117.605 45.76 117.869 45.64 118.197 45.568C118.525 45.488 118.885 45.448 119.277 45.448C120.013 45.448 120.561 45.604 120.921 45.916C121.289 46.228 121.473 46.764 121.473 47.524V50.632C121.473 50.856 121.497 51.032 121.545 51.16C121.593 51.28 121.673 51.368 121.785 51.424C121.897 51.472 122.041 51.496 122.217 51.496H122.253V52H120.633L120.441 50.968H120.345C120.177 51.192 120.013 51.392 119.853 51.568C119.693 51.736 119.505 51.872 119.289 51.976C119.081 52.072 118.809 52.12 118.473 52.12ZM118.749 51.376C119.077 51.376 119.357 51.308 119.589 51.172C119.829 51.036 120.013 50.844 120.141 50.596C120.277 50.34 120.345 50.044 120.345 49.708V48.736L119.577 48.772C119.121 48.788 118.761 48.856 118.497 48.976C118.241 49.096 118.057 49.264 117.945 49.48C117.833 49.688 117.777 49.948 117.777 50.26C117.777 50.508 117.813 50.716 117.885 50.884C117.957 51.044 118.065 51.168 118.209 51.256C118.353 51.336 118.533 51.376 118.749 51.376ZM133.79 54.88V54.376H133.886C134.07 54.376 134.234 54.356 134.378 54.316C134.53 54.276 134.65 54.192 134.738 54.064C134.826 53.944 134.87 53.76 134.87 53.512V46.888C134.87 46.648 134.822 46.472 134.726 46.36C134.638 46.24 134.518 46.164 134.366 46.132C134.222 46.092 134.062 46.072 133.886 46.072H133.73V45.568H135.83L135.95 46.648H135.998C136.182 46.28 136.418 45.988 136.706 45.772C136.994 45.556 137.37 45.448 137.834 45.448C138.626 45.448 139.23 45.716 139.646 46.252C140.07 46.78 140.282 47.62 140.282 48.772C140.282 49.932 140.07 50.78 139.646 51.316C139.23 51.852 138.626 52.12 137.834 52.12C137.37 52.12 136.99 52.024 136.694 51.832C136.406 51.632 136.174 51.376 135.998 51.064H135.95C135.966 51.216 135.974 51.38 135.974 51.556C135.982 51.724 135.986 51.884 135.986 52.036C135.994 52.188 135.998 52.316 135.998 52.42V53.572C135.998 53.804 136.042 53.976 136.13 54.088C136.226 54.208 136.346 54.284 136.49 54.316C136.642 54.356 136.806 54.376 136.982 54.376H137.018V54.88H133.79ZM137.642 51.352C137.994 51.352 138.278 51.252 138.494 51.052C138.71 50.852 138.866 50.56 138.962 50.176C139.066 49.792 139.118 49.32 139.118 48.76C139.118 48.192 139.066 47.72 138.962 47.344C138.866 46.968 138.71 46.688 138.494 46.504C138.278 46.312 137.99 46.216 137.63 46.216C137.214 46.216 136.886 46.308 136.646 46.492C136.414 46.676 136.246 46.96 136.142 47.344C136.046 47.72 135.998 48.196 135.998 48.772C135.998 49.324 136.046 49.792 136.142 50.176C136.246 50.56 136.418 50.852 136.658 51.052C136.898 51.252 137.226 51.352 137.642 51.352ZM151.967 54.316C152.375 54.316 152.727 54.256 153.023 54.136C153.319 54.016 153.571 53.848 153.779 53.632C153.987 53.424 154.163 53.176 154.307 52.888C154.451 52.6 154.571 52.288 154.667 51.952L152.447 46.708C152.375 46.54 152.303 46.412 152.231 46.324C152.159 46.228 152.075 46.164 151.979 46.132C151.883 46.092 151.755 46.072 151.595 46.072H151.559V45.568H154.439V46.072H154.403C154.163 46.072 153.983 46.12 153.863 46.216C153.743 46.304 153.683 46.448 153.683 46.648C153.683 46.712 153.691 46.78 153.707 46.852C153.723 46.924 153.747 47.004 153.779 47.092L154.655 49.228C154.711 49.364 154.767 49.512 154.823 49.672C154.887 49.832 154.947 49.992 155.003 50.152C155.059 50.312 155.107 50.464 155.147 50.608C155.187 50.752 155.215 50.872 155.231 50.968C155.287 50.736 155.359 50.496 155.447 50.248C155.543 50 155.631 49.756 155.711 49.516L156.515 47.176C156.555 47.08 156.583 46.988 156.599 46.9C156.615 46.804 156.623 46.724 156.623 46.66C156.623 46.452 156.555 46.304 156.419 46.216C156.291 46.12 156.095 46.072 155.831 46.072H155.795V45.568H158.291V46.072H158.255C158.103 46.072 157.975 46.096 157.871 46.144C157.767 46.192 157.675 46.284 157.595 46.42C157.523 46.556 157.439 46.752 157.343 47.008L155.519 52.048C155.311 52.632 155.111 53.108 154.919 53.476C154.727 53.844 154.511 54.128 154.271 54.328C154.039 54.536 153.747 54.68 153.395 54.76C153.043 54.84 152.603 54.88 152.075 54.88H151.967V54.316Z" fill="#9AAE93"/>
</g>
<defs>
<clipPath id="clip0_1_2">
<rect width="261" height="58" fill="white"/>
</clipPath>
</defs>
</svg>
